<svg width="128" height="129" viewBox="0 0 128 129" fill="none" xmlns="http://www.w3.org/2000/svg">
<path d="M63.934 126.79C98.5097 126.79 126.539 99.2088 126.539 65.1853C126.539 31.1619 98.5097 3.58044 63.934 3.58044C29.3583 3.58044 1.3291 31.1619 1.3291 65.1853C1.3291 99.2088 29.3583 126.79 63.934 126.79Z" fill="#F52A20" stroke="white" stroke-width="2.65825" stroke-miterlimit="10"/>
<path d="M25.2365 58.1941C25.2365 58.1941 38.2302 58.327 47.1988 48.1061C48.0768 49.3953 49.0358 51.3226 49.1033 53.6884C49.2249 58.5131 45.551 63.2448 39.851 65.6638C35.3127 67.1258 30.6122 66.2486 27.7758 63.3378C26.0334 61.5302 25.4526 59.4169 25.2365 58.1941Z" fill="black"/>
<path d="M23.6155 56.8251H23.602C23.1968 57.3169 23.0212 57.9548 23.1293 58.5662C23.5615 60.9985 24.6285 63.1517 26.2359 64.7998C29.6396 68.3087 35.11 69.4119 40.5263 67.684C40.5803 67.6707 40.6478 67.6442 40.7019 67.6176C47.2528 64.853 51.3994 59.377 51.2508 53.6618C51.1968 51.3358 50.4269 49.0763 48.9952 46.963C48.617 46.418 48.0092 46.0725 47.3473 46.0326C46.6855 45.9927 46.0371 46.2586 45.5914 46.7636C37.4062 56.0808 25.3849 56.1207 25.2634 56.1207C24.6421 56.1207 24.0342 56.3865 23.629 56.8517L23.6155 56.8251ZM39.081 63.6967C35.3396 64.8663 31.5171 64.1619 29.3155 61.8891C28.7752 61.3308 28.37 60.7194 28.0728 60.1213C32.1925 59.6295 39.9995 57.8751 46.6179 51.7611C46.8205 52.4257 46.9286 53.0903 46.9556 53.7681C47.0502 57.6624 43.8895 61.6498 39.081 63.7099V63.6967Z" fill="black"/>
<path d="M104.482 58.1941C104.482 58.1941 91.4882 58.327 82.5196 48.1061C81.6416 49.3953 80.6826 51.3226 80.6151 53.6884C80.4935 58.5131 84.1674 63.2448 89.8674 65.6638C94.4057 67.1258 99.1062 66.2486 101.943 63.3378C103.685 61.5302 104.266 59.4169 104.482 58.1941Z" fill="black"/>
<path d="M106.103 56.8251H106.116C106.521 57.3169 106.697 57.9548 106.589 58.5662C106.157 60.9985 105.09 63.1517 103.482 64.7998C100.079 68.3087 94.6082 69.4119 89.1919 67.684C89.1379 67.6707 89.0703 67.6442 89.0163 67.6176C82.4654 64.853 78.3188 59.377 78.4674 53.6618C78.5214 51.3358 79.2913 49.0763 80.723 46.963C81.1012 46.418 81.709 46.0725 82.3709 46.0326C83.0327 45.9927 83.6811 46.2586 84.1268 46.7636C92.312 56.0808 104.333 56.1207 104.455 56.1207C105.076 56.1207 105.684 56.3865 106.089 56.8517L106.103 56.8251ZM90.6237 63.6967C94.3651 64.8663 98.1876 64.1619 100.389 61.8891C100.929 61.3308 101.335 60.7194 101.632 60.1213C97.5122 59.6295 89.7052 57.8751 83.0868 51.7611C82.8841 52.4257 82.7761 53.0903 82.7491 53.7681C82.6545 57.6624 85.8152 61.6498 90.6237 63.7099V63.6967Z" fill="black"/>
<path d="M37.4739 93.416C38.9056 92.1134 41.2558 90.3856 44.3354 90.1596C48.6982 89.8406 50.1975 92.871 55.0195 92.9109C59.7064 92.9508 59.9495 90.0799 64.4203 90.1596C69.8231 90.2527 70.9712 94.4394 75.6041 93.9078C79.197 93.4957 79.7913 90.8375 83.4922 90.3989C86.8689 90.0001 89.8675 91.8077 91.88 93.4027" stroke="black" stroke-width="3.98737" stroke-linecap="round" stroke-linejoin="round"/>
</svg>
